<svg version="1.1" xmlns="http://www.w3.org/2000/svg" xmlns:xlink="http://www.w3.org/1999/xlink" x="0" y="0" viewBox="0 0 696 609.4" xml:space="preserve"><g opacity=".3"><path fill="#E5E5E5" d="M447.9 175H557v380H447.9z"/><path fill="#7E8281" d="M557 556H447.9c-.6 0-1-.4-1-1V175c0-.6.4-1 1-1H557c.6 0 1 .4 1 1v380c0 .6-.4 1-1 1zm-108.1-2H556V176H448.9v378z"/></g><g opacity=".1"><defs><path id="a" opacity=".1" d="M447 175.4h110v380H447z"/></defs><clipPath id="b"><use xlink:href="#a" overflow="visible"/></clipPath><path clip-path="url(#b)" fill="#989EA4" d="M416.5 626.2c-.4 0-.8-.2-.9-.6-.2-.5 0-1.1.6-1.3l167.4-67c.5-.2 1.1 0 1.3.6.2.5 0 1.1-.6 1.3l-167.4 67c-.1-.1-.3 0-.4 0zm0-11c-.4 0-.8-.2-.9-.6-.2-.5 0-1.1.6-1.3l167.4-67c.5-.2 1.1 0 1.3.6.2.5 0 1.1-.6 1.3l-167.4 67c-.1-.1-.3 0-.4 0zm0-11c-.4 0-.8-.2-.9-.6-.2-.5 0-1.1.6-1.3l167.4-67c.5-.2 1.1 0 1.3.6.2.5 0 1.1-.6 1.3l-167.4 67c-.1-.1-.3 0-.4 0zm0-11c-.4 0-.8-.2-.9-.6-.2-.5 0-1.1.6-1.3l167.4-67c.5-.2 1.1 0 1.3.6.2.5 0 1.1-.6 1.3l-167.4 67c-.1-.1-.3 0-.4 0zm0-11c-.4 0-.8-.2-.9-.6-.2-.5 0-1.1.6-1.3l167.4-67c.5-.2 1.1 0 1.3.6.2.5 0 1.1-.6 1.3l-167.4 67c-.1-.1-.3 0-.4 0zm0-11c-.4 0-.8-.2-.9-.6-.2-.5 0-1.1.6-1.3l167.4-67c.5-.2 1.1 0 1.3.6.2.5 0 1.1-.6 1.3l-167.4 67c-.1-.1-.3 0-.4 0zm0-11c-.4 0-.8-.2-.9-.6-.2-.5 0-1.1.6-1.3l167.4-67c.5-.2 1.1 0 1.3.6.2.5 0 1.1-.6 1.3l-167.4 67c-.1-.1-.3 0-.4 0zm0-11c-.4 0-.8-.2-.9-.6-.2-.5 0-1.1.6-1.3l167.4-67c.5-.2 1.1 0 1.3.6.2.5 0 1.1-.6 1.3l-167.4 67c-.1-.1-.3 0-.4 0zm0-11c-.4 0-.8-.2-.9-.6-.2-.5 0-1.1.6-1.3l167.4-67c.5-.2 1.1 0 1.3.6.2.5 0 1.1-.6 1.3l-167.4 67c-.1-.1-.3 0-.4 0zm0-10c-.4 0-.8-.2-.9-.6-.2-.5 0-1.1.6-1.3l167.4-67c.5-.2 1.1 0 1.3.6.2.5 0 1.1-.6 1.3l-167.4 67c-.1-.1-.3 0-.4 0zm0-10c-.4 0-.8-.2-.9-.6-.2-.5 0-1.1.6-1.3l167.4-67c.5-.2 1.1 0 1.3.6.2.5 0 1.1-.6 1.3l-167.4 67c-.1-.1-.3 0-.4 0zm0-10c-.4 0-.8-.2-.9-.6-.2-.5 0-1.1.6-1.3l167.4-67c.5-.2 1.1 0 1.3.6.2.5 0 1.1-.6 1.3l-167.4 67c-.1-.1-.3 0-.4 0zm0-10c-.4 0-.8-.2-.9-.6-.2-.5 0-1.1.6-1.3l167.4-67c.5-.2 1.1 0 1.3.6.2.5 0 1.1-.6 1.3l-167.4 67c-.1-.1-.3 0-.4 0zm0-10c-.4 0-.8-.2-.9-.6-.2-.5 0-1.1.6-1.3l167.4-67c.5-.2 1.1 0 1.3.6.2.5 0 1.1-.6 1.3l-167.4 67c-.1-.1-.3 0-.4 0zm0-10c-.4 0-.8-.2-.9-.6-.2-.5 0-1.1.6-1.3l167.4-67c.5-.2 1.1 0 1.3.6.2.5 0 1.1-.6 1.3l-167.4 67c-.1-.1-.3 0-.4 0zm0-10c-.4 0-.8-.2-.9-.6-.2-.5 0-1.1.6-1.3l167.4-67c.5-.2 1.1 0 1.3.6.2.5 0 1.1-.6 1.3l-167.4 67c-.1-.1-.3 0-.4 0zm0-10c-.4 0-.8-.2-.9-.6-.2-.5 0-1.1.6-1.3l167.4-67c.5-.2 1.1 0 1.3.6.2.5 0 1.1-.6 1.3l-167.4 67c-.1-.1-.3 0-.4 0zm0-10c-.4 0-.8-.2-.9-.6-.2-.5 0-1.1.6-1.3l167.4-67c.5-.2 1.1 0 1.3.6.2.5 0 1.1-.6 1.3l-167.4 67c-.1-.1-.3 0-.4 0zm0-10c-.4 0-.8-.2-.9-.6-.2-.5 0-1.1.6-1.3l167.4-67c.5-.2 1.1 0 1.3.6.2.5 0 1.1-.6 1.3l-167.4 67c-.1-.1-.3 0-.4 0zm0-10c-.4 0-.8-.2-.9-.6-.2-.5 0-1.1.6-1.3l167.4-67c.5-.2 1.1 0 1.3.6.2.5 0 1.1-.6 1.3l-167.4 67c-.1-.1-.3 0-.4 0zm0-10c-.4 0-.8-.2-.9-.6-.2-.5 0-1.1.6-1.3l167.4-67c.5-.2 1.1 0 1.3.6.2.5 0 1.1-.6 1.3l-167.4 67c-.1-.1-.3 0-.4 0zm0-10c-.4 0-.8-.2-.9-.6-.2-.5 0-1.1.6-1.3l167.4-67c.5-.2 1.1 0 1.3.6.2.5 0 1.1-.6 1.3l-167.4 67c-.1-.1-.3 0-.4 0zm0-10c-.4 0-.8-.2-.9-.6-.2-.5 0-1.1.6-1.3l167.4-67c.5-.2 1.1 0 1.3.6.2.5 0 1.1-.6 1.3l-167.4 67c-.1-.1-.3 0-.4 0zm0-10c-.4 0-.8-.2-.9-.6-.2-.5 0-1.1.6-1.3l167.4-67c.5-.2 1.1 0 1.3.6.2.5 0 1.1-.6 1.3l-167.4 67c-.1-.1-.3 0-.4 0zm0-10c-.4 0-.8-.2-.9-.6-.2-.5 0-1.1.6-1.3l167.4-67c.5-.2 1.1 0 1.3.6.2.5 0 1.1-.6 1.3l-167.4 67c-.1-.1-.3 0-.4 0zm0-10c-.4 0-.8-.2-.9-.6-.2-.5 0-1.1.6-1.3l167.4-67c.5-.2 1.1 0 1.3.6.2.5 0 1.1-.6 1.3l-167.4 67c-.1-.1-.3 0-.4 0zm0-10c-.4 0-.8-.2-.9-.6-.2-.5 0-1.1.6-1.3l167.4-67c.5-.2 1.1 0 1.3.6.2.5 0 1.1-.6 1.3l-167.4 67c-.1-.1-.3 0-.4 0zm0-10c-.4 0-.8-.2-.9-.6-.2-.5 0-1.1.6-1.3l167.4-67c.5-.2 1.1 0 1.3.6.2.5 0 1.1-.6 1.3l-167.4 67c-.1-.1-.3 0-.4 0zm0-10c-.4 0-.8-.2-.9-.6-.2-.5 0-1.1.6-1.3l167.4-67c.5-.2 1.1 0 1.3.6.2.5 0 1.1-.6 1.3l-167.4 67c-.1-.1-.3 0-.4 0zm0-10c-.4 0-.8-.2-.9-.6-.2-.5 0-1.1.6-1.3l167.4-67c.5-.2 1.1 0 1.3.6.2.5 0 1.1-.6 1.3l-167.4 67c-.1-.1-.3 0-.4 0zm0-10c-.4 0-.8-.2-.9-.6-.2-.5 0-1.1.6-1.3l167.4-67c.5-.2 1.1 0 1.3.6.2.5 0 1.1-.6 1.3l-167.4 67c-.1-.1-.3 0-.4 0zm0-10c-.4 0-.8-.2-.9-.6-.2-.5 0-1.1.6-1.3l167.4-67c.5-.2 1.1 0 1.3.6.2.5 0 1.1-.6 1.3l-167.4 67c-.1-.1-.3 0-.4 0zm0-10c-.4 0-.8-.2-.9-.6-.2-.5 0-1.1.6-1.3l167.4-67c.5-.2 1.1 0 1.3.6.2.5 0 1.1-.6 1.3l-167.4 67c-.1-.1-.3 0-.4 0zm0-10c-.4 0-.8-.2-.9-.6-.2-.5 0-1.1.6-1.3l167.4-67c.5-.2 1.1 0 1.3.6.2.5 0 1.1-.6 1.3l-167.4 67c-.1-.1-.3 0-.4 0zm0-10c-.4 0-.8-.2-.9-.6-.2-.5 0-1.1.6-1.3l167.4-67c.5-.2 1.1 0 1.3.6.2.5 0 1.1-.6 1.3l-167.4 67c-.1-.1-.3 0-.4 0zm0-10c-.4 0-.8-.2-.9-.6-.2-.5 0-1.1.6-1.3l167.4-67c.5-.2 1.1 0 1.3.6.2.5 0 1.1-.6 1.3l-167.4 67c-.1-.1-.3 0-.4 0zm0-10c-.4 0-.8-.2-.9-.6-.2-.5 0-1.1.6-1.3l167.4-67c.5-.2 1.1 0 1.3.6.2.5 0 1.1-.6 1.3l-167.4 67c-.1-.1-.3 0-.4 0zm0-10c-.4 0-.8-.2-.9-.6-.2-.5 0-1.1.6-1.3l167.4-67c.5-.2 1.1 0 1.3.6.2.5 0 1.1-.6 1.3l-167.4 67c-.1-.1-.3 0-.4 0zm0-10c-.4 0-.8-.2-.9-.6-.2-.5 0-1.1.6-1.3l167.4-67c.5-.2 1.1 0 1.3.6.2.5 0 1.1-.6 1.3l-167.4 67c-.1-.1-.3 0-.4 0zm0-10c-.4 0-.8-.2-.9-.6-.2-.5 0-1.1.6-1.3l167.4-67c.5-.2 1.1 0 1.3.6.2.5 0 1.1-.6 1.3l-167.4 67c-.1-.1-.3 0-.4 0zm0-10c-.4 0-.8-.2-.9-.6-.2-.5 0-1.1.6-1.3l167.4-67c.5-.2 1.1 0 1.3.6.2.5 0 1.1-.6 1.3l-167.4 67c-.1-.1-.3 0-.4 0zm0-10c-.4 0-.8-.2-.9-.6-.2-.5 0-1.1.6-1.3l167.4-67c.5-.2 1.1 0 1.3.6.2.5 0 1.1-.6 1.3l-167.4 67c-.1-.1-.3 0-.4 0zm0-10c-.4 0-.8-.2-.9-.6-.2-.5 0-1.1.6-1.3l167.4-67c.5-.2 1.1 0 1.3.6.2.5 0 1.1-.6 1.3l-167.4 67c-.1-.1-.3 0-.4 0zm0-10c-.4 0-.8-.2-.9-.6-.2-.5 0-1.1.6-1.3l167.4-67c.5-.2 1.1 0 1.3.6.2.5 0 1.1-.6 1.3l-167.4 67c-.1-.1-.3 0-.4 0zm0-10c-.4 0-.8-.2-.9-.6-.2-.5 0-1.1.6-1.3l167.4-67c.5-.2 1.1 0 1.3.6.2.5 0 1.1-.6 1.3l-167.4 67c-.1-.1-.3 0-.4 0zm0-10c-.4 0-.8-.2-.9-.6-.2-.5 0-1.1.6-1.3l167.4-67c.5-.2 1.1 0 1.3.6.2.5 0 1.1-.6 1.3l-167.4 67c-.1-.1-.3 0-.4 0zm0-10c-.4 0-.8-.2-.9-.6-.2-.5 0-1.1.6-1.3l167.4-67c.5-.2 1.1 0 1.3.6.2.5 0 1.1-.6 1.3l-167.4 67c-.1-.1-.3 0-.4 0zm0-10c-.4 0-.8-.2-.9-.6-.2-.5 0-1.1.6-1.3l167.4-67c.5-.2 1.1 0 1.3.6.2.5 0 1.1-.6 1.3l-167.4 67c-.1-.1-.3 0-.4 0zm0-10c-.4 0-.8-.2-.9-.6-.2-.5 0-1.1.6-1.3l167.4-67c.5-.2 1.1 0 1.3.6.2.5 0 1.1-.6 1.3l-167.4 67c-.1-.1-.3 0-.4 0zm0-10c-.4 0-.8-.2-.9-.6-.2-.5 0-1.1.6-1.3l167.4-67c.5-.2 1.1 0 1.3.6.2.5 0 1.1-.6 1.3l-167.4 67c-.1-.1-.3 0-.4 0z"/></g><g opacity=".2"><defs><path id="c" opacity=".2" d="M245 344.4H134v-139h111v139zm-110-1h109v-137H135v137z"/></defs><use xlink:href="#c" overflow="visible" fill="#D3D3D3"/><clipPath id="d"><use xlink:href="#c" overflow="visible"/></clipPath><path clip-path="url(#d)" fill="#D3D3D3" d="M275.5 568.5c-.1 0-.2 0-.4-.1l-167.4-67c-.5-.2-.8-.8-.6-1.3.2-.5.8-.8 1.3-.6l167.4 67c.5.2.8.8.6 1.3-.2.5-.5.7-.9.7zm0-10c-.1 0-.2 0-.4-.1l-167.4-67c-.5-.2-.8-.8-.6-1.3.2-.5.8-.8 1.3-.6l167.4 67c.5.2.8.8.6 1.3-.2.5-.5.7-.9.7zm0-10c-.1 0-.2 0-.4-.1l-167.4-67c-.5-.2-.8-.8-.6-1.3.2-.5.8-.8 1.3-.6l167.4 67c.5.2.8.8.6 1.3-.2.5-.5.7-.9.7zm0-10c-.1 0-.2 0-.4-.1l-167.4-67c-.5-.2-.8-.8-.6-1.3.2-.5.8-.8 1.3-.6l167.4 67c.5.2.8.8.6 1.3-.2.5-.5.7-.9.7zm0-10c-.1 0-.2 0-.4-.1l-167.4-67c-.5-.2-.8-.8-.6-1.3.2-.5.8-.8 1.3-.6l167.4 67c.5.2.8.8.6 1.3-.2.5-.5.7-.9.7zm0-10c-.1 0-.2 0-.4-.1l-167.4-67c-.5-.2-.8-.8-.6-1.3.2-.5.8-.8 1.3-.6l167.4 67c.5.2.8.8.6 1.3-.2.5-.5.7-.9.7zm0-10c-.1 0-.2 0-.4-.1l-167.4-67c-.5-.2-.8-.8-.6-1.3.2-.5.8-.8 1.3-.6l167.4 67c.5.2.8.8.6 1.3-.2.5-.5.7-.9.7zm0-10c-.1 0-.2 0-.4-.1l-167.4-67c-.5-.2-.8-.8-.6-1.3.2-.5.8-.8 1.3-.6l167.4 67c.5.2.8.8.6 1.3-.2.5-.5.7-.9.7zm0-10c-.1 0-.2 0-.4-.1l-167.4-67c-.5-.2-.8-.8-.6-1.3.2-.5.8-.8 1.3-.6l167.4 67c.5.2.8.8.6 1.3-.2.5-.5.7-.9.7zm0-10c-.1 0-.2 0-.4-.1l-167.4-67c-.5-.2-.8-.8-.6-1.3.2-.5.8-.8 1.3-.6l167.4 67c.5.2.8.8.6 1.3-.2.5-.5.7-.9.7zm0-10c-.1 0-.2 0-.4-.1l-167.4-67c-.5-.2-.8-.8-.6-1.3.2-.5.8-.8 1.3-.6l167.4 67c.5.2.8.8.6 1.3-.2.5-.5.7-.9.7zm0-10c-.1 0-.2 0-.4-.1l-167.4-67c-.5-.2-.8-.8-.6-1.3.2-.5.8-.8 1.3-.6l167.4 67c.5.2.8.8.6 1.3-.2.5-.5.7-.9.7zm0-10c-.1 0-.2 0-.4-.1l-167.4-67c-.5-.2-.8-.8-.6-1.3.2-.5.8-.8 1.3-.6l167.4 67c.5.2.8.8.6 1.3-.2.5-.5.7-.9.7zm0-10c-.1 0-.2 0-.4-.1l-167.4-67c-.5-.2-.8-.8-.6-1.3.2-.5.8-.8 1.3-.6l167.4 67c.5.2.8.8.6 1.3-.2.5-.5.7-.9.7zm0-10c-.1 0-.2 0-.4-.1l-167.4-67c-.5-.2-.8-.8-.6-1.3.2-.5.8-.8 1.3-.6l167.4 67c.5.2.8.8.6 1.3-.2.5-.5.7-.9.7zm0-10c-.1 0-.2 0-.4-.1l-167.4-67c-.5-.2-.8-.8-.6-1.3.2-.5.8-.8 1.3-.6l167.4 67c.5.2.8.8.6 1.3-.2.5-.5.7-.9.7zm0-10c-.1 0-.2 0-.4-.1l-167.4-67c-.5-.2-.8-.8-.6-1.3.2-.5.8-.8 1.3-.6l167.4 67c.5.2.8.8.6 1.3-.2.5-.5.7-.9.7zm0-10c-.1 0-.2 0-.4-.1l-167.4-67c-.5-.2-.8-.8-.6-1.3.2-.5.8-.8 1.3-.6l167.4 67c.5.2.8.8.6 1.3-.2.5-.5.7-.9.7zm0-10c-.1 0-.2 0-.4-.1l-167.4-67c-.5-.2-.8-.8-.6-1.3.2-.5.8-.8 1.3-.6l167.4 67c.5.2.8.8.6 1.3-.2.5-.5.7-.9.7zm0-10c-.1 0-.2 0-.4-.1l-167.4-67c-.5-.2-.8-.8-.6-1.3.2-.5.8-.8 1.3-.6l167.4 67c.5.2.8.8.6 1.3-.2.5-.5.7-.9.7zm0-10c-.1 0-.2 0-.4-.1l-167.4-67c-.5-.2-.8-.8-.6-1.3.2-.5.8-.8 1.3-.6l167.4 67c.5.2.8.8.6 1.3-.2.5-.5.7-.9.7zm0-10c-.1 0-.2 0-.4-.1l-167.4-67c-.5-.2-.8-.8-.6-1.3.2-.5.8-.8 1.3-.6l167.4 67c.5.2.8.8.6 1.3-.2.5-.5.7-.9.7zm0-10c-.1 0-.2 0-.4-.1l-167.4-67c-.5-.2-.8-.8-.6-1.3.2-.5.8-.8 1.3-.6l167.4 67c.5.2.8.8.6 1.3-.2.5-.5.7-.9.7zm0-10c-.1 0-.2 0-.4-.1l-167.4-67c-.5-.2-.8-.8-.6-1.3.2-.5.8-.8 1.3-.6l167.4 67c.5.2.8.8.6 1.3-.2.5-.5.7-.9.7zm0-10c-.1 0-.2 0-.4-.1l-167.4-67c-.5-.2-.8-.8-.6-1.3.2-.5.8-.8 1.3-.6l167.4 67c.5.2.8.8.6 1.3-.2.5-.5.7-.9.7zm0-10c-.1 0-.2 0-.4-.1l-167.4-67c-.5-.2-.8-.8-.6-1.3.2-.5.8-.8 1.3-.6l167.4 67c.5.2.8.8.6 1.3-.2.5-.5.7-.9.7zm0-10c-.1 0-.2 0-.4-.1l-167.4-67c-.5-.2-.8-.8-.6-1.3.2-.5.8-.8 1.3-.6l167.4 67c.5.2.8.8.6 1.3-.2.5-.5.7-.9.7zm0-10c-.1 0-.2 0-.4-.1l-167.4-67c-.5-.2-.8-.8-.6-1.3.2-.5.8-.8 1.3-.6l167.4 67c.5.2.8.8.6 1.3-.2.5-.5.7-.9.7zm0-10c-.1 0-.2 0-.4-.1l-167.4-67c-.5-.2-.8-.8-.6-1.3.2-.5.8-.8 1.3-.6l167.4 67c.5.2.8.8.6 1.3-.2.5-.5.7-.9.7zm0-10c-.1 0-.2 0-.4-.1l-167.4-67c-.5-.2-.8-.8-.6-1.3.2-.5.8-.8 1.3-.6l167.4 67c.5.2.8.8.6 1.3-.2.5-.5.7-.9.7zm0-10c-.1 0-.2 0-.4-.1l-167.4-67c-.5-.2-.8-.8-.6-1.3.2-.5.8-.8 1.3-.6l167.4 67c.5.2.8.8.6 1.3-.2.5-.5.7-.9.7zm0-10c-.1 0-.2 0-.4-.1l-167.4-67c-.5-.2-.8-.8-.6-1.3.2-.5.8-.8 1.3-.6l167.4 67c.5.2.8.8.6 1.3-.2.5-.5.7-.9.7zm0-10c-.1 0-.2 0-.4-.1l-167.4-67c-.5-.2-.8-.8-.6-1.3.2-.5.8-.8 1.3-.6l167.4 67c.5.2.8.8.6 1.3-.2.5-.5.7-.9.7zm0-10c-.1 0-.2 0-.4-.1l-167.4-67c-.5-.2-.8-.8-.6-1.3.2-.5.8-.8 1.3-.6l167.4 67c.5.2.8.8.6 1.3-.2.5-.5.7-.9.7zm0-10c-.1 0-.2 0-.4-.1l-167.4-67c-.5-.2-.8-.8-.6-1.3.2-.5.8-.8 1.3-.6l167.4 67c.5.2.8.8.6 1.3-.2.5-.5.7-.9.7zm0-10c-.1 0-.2 0-.4-.1l-167.4-67c-.5-.2-.8-.8-.6-1.3.2-.5.8-.8 1.3-.6l167.4 67c.5.2.8.8.6 1.3-.2.5-.5.7-.9.7zm0-10c-.1 0-.2 0-.4-.1l-167.4-67c-.5-.2-.8-.8-.6-1.3.2-.5.8-.8 1.3-.6l167.4 67c.5.2.8.8.6 1.3-.2.5-.5.7-.9.7zm0-10c-.1 0-.2 0-.4-.1l-167.4-67c-.5-.2-.8-.8-.6-1.3.2-.5.8-.8 1.3-.6l167.4 67c.5.2.8.8.6 1.3-.2.5-.5.7-.9.7zm0-10c-.1 0-.2 0-.4-.1l-167.4-67c-.5-.2-.8-.8-.6-1.3.2-.5.8-.8 1.3-.6l167.4 67c.5.2.8.8.6 1.3-.2.5-.5.7-.9.7zm0-10c-.1 0-.2 0-.4-.1l-167.4-67c-.5-.2-.8-.8-.6-1.3.2-.5.8-.8 1.3-.6l167.4 67c.5.2.8.8.6 1.3-.2.5-.5.7-.9.7zm0-10c-.1 0-.2 0-.4-.1l-167.4-67c-.5-.2-.8-.8-.6-1.3.2-.5.8-.8 1.3-.6l167.4 67c.5.2.8.8.6 1.3-.2.5-.5.7-.9.7zm0-10c-.1 0-.2 0-.4-.1l-167.4-67c-.5-.2-.8-.8-.6-1.3.2-.5.8-.8 1.3-.6l167.4 67c.5.2.8.8.6 1.3-.2.5-.5.7-.9.7z"/></g><g fill="#989EA4"><path d="M144.1 391.7c-2.8 0-4.6-2-4.6-5s1.8-5 4.6-5c1.1 0 1.9.3 2.6.7l-.3 1.8c-.6-.5-1.4-.9-2.3-.9-1.8 0-2.8 1.3-2.8 3.4 0 2.1 1.1 3.4 2.8 3.4.9 0 1.7-.3 2.5-.8l.3 1.6c-.7.4-1.7.8-2.8.8zM155.1 391.5v-4.2H151v4.2h-1.9v-9.7h1.9v3.8h4.1v-3.8h1.9v9.7h-1.9zM163.7 391.7c-2.7 0-4.5-2-4.5-5s1.8-5 4.6-5 4.5 2 4.5 5-1.9 5-4.6 5zm0-8.5c-1.7 0-2.6 1.4-2.6 3.5s1 3.5 2.6 3.5c1.7 0 2.7-1.4 2.7-3.5-.1-2.1-1.1-3.5-2.7-3.5zM174.6 391.7c-2.7 0-4.5-2-4.5-5s1.8-5 4.6-5 4.5 2 4.5 5-1.8 5-4.6 5zm0-8.5c-1.7 0-2.6 1.4-2.6 3.5s1 3.5 2.6 3.5c1.7 0 2.7-1.4 2.7-3.5s-1-3.5-2.7-3.5zM184 391.6c-1.2 0-2.2-.3-3-.7l.3-1.7c.8.5 1.8.9 2.8.9.9 0 1.4-.4 1.4-1.2 0-.7-.3-1-1.7-1.6-1.9-.8-2.6-1.4-2.6-2.9 0-1.7 1.3-2.7 3.1-2.7 1.1 0 1.8.2 2.5.6l-.3 1.7c-.7-.5-1.5-.8-2.3-.8-.9 0-1.3.4-1.3 1s.3.9 1.7 1.5c2 .8 2.7 1.5 2.7 3-.1 1.9-1.5 2.9-3.3 2.9zM189.3 391.5v-9.7h5.6v1.6h-3.8v2.3h2.9l.3 1.6h-3.2v2.7h3.9v1.6h-5.7zM205.2 387.8v3.7h-1.9v-3.7l-3.4-5.8 1.9-.3 2.4 4.4 2.4-4.3h2l-3.4 6zM214 391.7c-2.7 0-4.5-2-4.5-5s1.8-5 4.6-5 4.5 2 4.5 5-1.9 5-4.6 5zm0-8.5c-1.7 0-2.6 1.4-2.6 3.5s1 3.5 2.6 3.5c1.7 0 2.7-1.4 2.7-3.5s-1.1-3.5-2.7-3.5zM224.5 391.7c-2.3 0-3.9-1.4-3.9-3.9v-5.9h1.8v5.8c0 1.5.7 2.4 2 2.4 1.4 0 2.1-.9 2.1-2.4v-5.9h1.9v5.9c.1 2.6-1.5 4-3.9 4zM236.1 391.6l-2.5-3.8h-.8v3.7H231v-9.7h3c2.2 0 3.5 1 3.5 2.9 0 1.4-.8 2.3-2 2.7l2.6 3.8-2 .4zm-2.3-8.3h-1v3.1h.9c1.1 0 1.9-.5 1.9-1.6 0-.9-.6-1.5-1.8-1.5zM146.1 408.5c-2.8 0-4.6-2-4.6-5s1.8-5 4.6-5c1.1 0 1.9.3 2.6.7l-.3 1.8c-.6-.5-1.4-.9-2.3-.9-1.8 0-2.8 1.3-2.8 3.4 0 2.1 1.1 3.4 2.8 3.4.9 0 1.7-.3 2.5-.8l.3 1.6c-.7.4-1.7.8-2.8.8zM151.1 408.3v-9.7h1.9v8h3.2l.3 1.7h-5.4zM161.9 408.5c-2.7 0-4.5-2-4.5-5s1.8-5 4.6-5 4.5 2 4.5 5-1.8 5-4.6 5zm0-8.5c-1.7 0-2.6 1.4-2.6 3.5s1 3.5 2.6 3.5c1.7 0 2.7-1.4 2.7-3.5s-1-3.5-2.7-3.5zM171.3 408.4c-1.2 0-2.2-.3-3-.7l.3-1.7c.8.5 1.8.9 2.8.9.9 0 1.4-.4 1.4-1.2 0-.7-.3-1-1.7-1.6-1.9-.8-2.6-1.4-2.6-2.9 0-1.7 1.3-2.7 3.1-2.7 1.1 0 1.8.2 2.5.6l-.3 1.7c-.7-.5-1.5-.8-2.3-.8-.9 0-1.3.4-1.3 1s.3.9 1.7 1.5c2 .8 2.7 1.5 2.7 3-.1 1.9-1.5 2.9-3.3 2.9zM176.7 408.3v-9.7h1.9v9.7h-1.9zM187.5 408.3l-4.6-6.7v6.7h-1.7v-9.7h1.8l4.3 6.3v-6.3h1.7v9.7h-1.5zM196 408.5c-3.1 0-4.7-2-4.7-5s1.8-5 4.7-5c1.2 0 2.2.3 2.9.8l-.3 1.7c-.7-.5-1.6-.9-2.7-.9-1.9 0-2.8 1.4-2.8 3.4 0 2.1 1 3.4 2.9 3.4.7 0 1.1-.1 1.6-.4v-2.1h-2l-.2-1.5h3.9v4.6c-.8.6-2 1-3.3 1zM208.5 408.3h-3.1v-9.7h3.1c3.4 0 5.1 2 5.1 4.8 0 2.9-1.8 4.9-5.1 4.9zm0-8.1h-1.2v6.6h1.2c2 0 3.2-1 3.2-3.3 0-2.2-1.3-3.3-3.2-3.3zM218.3 398.6h2l3.5 9.5-1.9.3-.9-2.5h-3.7l-.8 2.5h-1.9l3.7-9.8zm-.4 5.7h2.6l-1.3-3.7-1.3 3.7zM228.6 400.3v8.1h-1.8v-8.1h-2.9v-1.6h7.5l.3 1.6h-3.1zM233.5 408.3v-9.7h5.6v1.6h-3.8v2.3h2.9l.3 1.6h-3.2v2.7h3.9v1.6h-5.7z"/></g><g><path fill="#6ECCAA" d="M262.7 198.5c-2.9 0-4.9-2.3-4.9-6.3 0-4.1 1.9-6.3 4.9-6.3 2.9 0 4.8 2.3 4.8 6.3 0 4.1-1.9 6.3-4.8 6.3zm0-10.8c-1.6 0-2.6 1.6-2.6 4.5s.9 4.5 2.6 4.5c1.6 0 2.5-1.6 2.5-4.5s-.9-4.5-2.5-4.5zM278.8 198.3h-3.9v-12.4h3.9c4.3 0 6.6 2.5 6.6 6.2s-2.3 6.2-6.6 6.2zm0-10.5h-1.5v8.5h1.5c2.6 0 4.2-1.3 4.2-4.2 0-2.9-1.7-4.3-4.2-4.3zM291.4 185.8h2.5l4.6 12.2-2.4.4-1.2-3.3h-4.7l-1.1 3.2h-2.4l4.7-12.5zm-.5 7.4h3.4l-1.7-4.8-1.7 4.8zM305 193.5v4.8h-2.4v-4.7l-4.3-7.4 2.5-.4 3.1 5.6 3-5.5h2.6l-4.5 7.6z"/><path fill="#989EA4" d="M258 215.1v-9.7h1.9v8h3.2l.3 1.7H258zM265.3 215.1v-9.7h1.9v9.7h-1.9zM272.5 215.2c-1.2 0-2.2-.3-3-.7l.3-1.7c.8.5 1.8.9 2.8.9.9 0 1.4-.4 1.4-1.2 0-.7-.3-1-1.7-1.6-1.9-.8-2.6-1.4-2.6-2.9 0-1.7 1.3-2.7 3.1-2.7 1.1 0 1.8.2 2.5.6l-.3 1.7c-.7-.5-1.5-.8-2.3-.8-.9 0-1.3.4-1.3 1s.3.9 1.7 1.5c2 .8 2.7 1.5 2.7 3-.1 1.9-1.4 2.9-3.3 2.9zM281.9 207v8.1H280V207h-2.9v-1.6h7.5l.3 1.6h-3zM286.8 215.1v-9.7h1.9v9.7h-1.9zM297.6 215.1l-4.6-6.7v6.7h-1.7v-9.7h1.8l4.3 6.3v-6.3h1.7v9.7h-1.5zM306.1 215.3c-3.1 0-4.7-2-4.7-5s1.8-5 4.7-5c1.2 0 2.2.3 2.9.8l-.3 1.7c-.7-.5-1.6-.9-2.7-.9-1.9 0-2.8 1.4-2.8 3.4 0 2.1 1 3.4 2.9 3.4.7 0 1.1-.1 1.6-.4v-2.1h-2l-.2-1.5h3.9v4.6c-.8.6-2 1-3.3 1z"/></g><path opacity=".5" fill="#E2E2E2" d="M247 344.4c0 .6-.4 1-1 1H136c-.6 0-1-.4-1-1v-139c0-.6.4-1 1-1h110c.6 0 1 .4 1 1v139zm-110-1h107v-137H137v137z"/><g><g fill="#0296DA"><path d="M151.4 369.2c-1.4 0-2.8-.4-3.7-1l.3-2c1 .6 2.1 1 3.3 1 1.4 0 2.3-.6 2.3-1.7 0-1.2-.8-1.9-2.8-1.9h-.8l-.3-1.9h1.1c1.8 0 2.6-.6 2.6-1.7 0-.9-.7-1.5-2-1.5-1.2 0-2.3.4-3.2 1.1l-.3-1.9c.9-.7 2.2-1.1 3.7-1.1 2.7 0 4.1 1.4 4.1 3.2 0 1.6-.9 2.4-2.2 2.9 1.5.5 2.4 1.3 2.4 3 0 2.1-1.8 3.5-4.5 3.5zM158.2 364.8v-2.1h4.7v2.1h-4.7zM167.5 362.3c.9-.6 1.8-.9 3-.9 2.1 0 3.6 1.3 3.6 3.7 0 2.4-1.9 4.1-4.4 4.1-2.6 0-4.5-1.8-4.5-5.1 0-4.3 2.9-6.6 6.8-7.5l.3 1.9c-2.4.5-4.3 1.6-4.8 3.8zm-.2 1.7c0 2.2 1 3.4 2.4 3.4 1.3 0 2.1-.8 2.1-2.2 0-1.3-.7-2.1-2.1-2.1-.8 0-1.6.4-2.4.9zM181.1 369.2c-2.9 0-4.9-2.3-4.9-6.3 0-4.1 1.9-6.3 4.9-6.3 2.9 0 4.8 2.3 4.8 6.3s-1.9 6.3-4.8 6.3zm0-10.8c-1.6 0-2.6 1.6-2.6 4.5s.9 4.5 2.6 4.5c1.6 0 2.5-1.6 2.5-4.5s-.9-4.5-2.5-4.5zM197.3 369h-3.9v-12.4h3.9c4.3 0 6.6 2.5 6.6 6.2-.1 3.6-2.4 6.2-6.6 6.2zm-.1-10.5h-1.5v8.5h1.5c2.6 0 4.2-1.3 4.2-4.2 0-2.9-1.7-4.3-4.2-4.3zM209.8 356.5h2.5l4.6 12.2-2.4.4-1.2-3.3h-4.7l-1.1 3.2h-2.4l4.7-12.5zm-.5 7.4h3.4l-1.7-4.8-1.7 4.8zM223.4 364.2v4.8H221v-4.7l-4.3-7.4 2.5-.4 3.1 5.6 3-5.5h2.6l-4.5 7.6zM233 369.1c-1.5 0-2.8-.3-3.9-.9l.4-2.2c1 .6 2.3 1.1 3.6 1.1 1.1 0 1.9-.5 1.9-1.5 0-.9-.4-1.3-2.2-2.1-2.4-1-3.4-1.8-3.4-3.7 0-2.2 1.7-3.5 4-3.5 1.4 0 2.4.3 3.3.8l-.4 2.2c-.9-.6-2-1-2.9-1-1.2 0-1.7.6-1.7 1.3 0 .8.4 1.2 2.1 1.9 2.6 1 3.5 1.9 3.5 3.9-.1 2.4-1.9 3.7-4.3 3.7z"/></g></g><g><path fill="#D0F7E8" d="M136 173.4h109.1v32H136z"/><path fill="#6ECCAA" d="M245.1 206.4H136c-.6 0-1-.4-1-1v-32c0-.6.4-1 1-1h109.1c.6 0 1 .4 1 1v32c0 .5-.5 1-1 1zm-108.1-2h107.1v-30H137v30z"/></g><g fill="#989EA4"><path d="M464.4 606.7c-2.7 0-4.5-2-4.5-5s1.8-5 4.6-5 4.5 2 4.5 5-1.8 5-4.6 5zm0-8.5c-1.7 0-2.6 1.4-2.6 3.5s1 3.5 2.6 3.5c1.7 0 2.7-1.4 2.7-3.5s-1-3.5-2.7-3.5zM477.5 606.5l-4.6-6.7v6.7h-1.7v-9.7h1.8l4.3 6.3v-6.3h1.7v9.7h-1.5zM494.1 606.5l-.5-7.1-2.4 7.2h-1.7l-2.4-7.2-.5 7.1h-1.7l.7-9.7h2.4l2.5 7.3 2.4-7.3h2.3l.7 9.7h-1.8zM501.2 596.8h2l3.5 9.5-1.9.3-.9-2.5h-3.7l-.8 2.5h-1.9l3.7-9.8zm-.5 5.7h2.6l-1.3-3.7-1.3 3.7zM513.7 606.6l-2.5-3.8h-.8v3.7h-1.8v-9.7h3c2.2 0 3.5 1 3.5 2.9 0 1.4-.8 2.3-2 2.7l2.6 3.8-2 .4zm-2.3-8.3h-1v3.1h.9c1.1 0 1.9-.5 1.9-1.6 0-.9-.6-1.5-1.8-1.5zM523.1 606.6l-3.8-4.8v4.7h-1.9v-9.7h1.9v4.2l3.5-4.2h2.2l-3.9 4.5 4 4.9-2 .4zM526.8 606.5v-9.7h5.6v1.6h-3.8v2.3h2.9l.3 1.6h-3.2v2.7h3.9v1.6h-5.7zM538.8 598.5v8.1H537v-8.1h-3v-1.6h7.5l.3 1.6h-3z"/></g><g><g fill="#F95858"><path d="M470 585.1l-2.2-.4 4.5-9.9h-5.6l-.3-2h8.3v1.8l-4.7 10.5zM480.5 585.2c-1.4 0-2.8-.4-3.7-1l.3-2c1 .6 2.1 1 3.3 1 1.4 0 2.2-.6 2.2-1.7 0-1.2-.8-1.9-2.8-1.9h-.8l-.3-1.9h1.1c1.8 0 2.6-.6 2.6-1.7 0-.9-.7-1.5-2-1.5-1.2 0-2.3.4-3.2 1.1l-.3-1.9c.9-.7 2.2-1.1 3.7-1.1 2.7 0 4.1 1.4 4.1 3.2 0 1.6-.9 2.4-2.2 2.9 1.5.5 2.4 1.3 2.4 3 0 2.1-1.8 3.5-4.4 3.5zM496.2 585h-3.9v-12.4h3.9c4.3 0 6.6 2.5 6.6 6.2 0 3.6-2.3 6.2-6.6 6.2zm0-10.5h-1.5v8.5h1.5c2.6 0 4.2-1.3 4.2-4.2-.1-2.9-1.7-4.3-4.2-4.3zM508.8 572.5h2.5l4.6 12.2-2.4.4-1.2-3.3h-4.7l-1.1 3.2h-2.4l4.7-12.5zm-.5 7.4h3.4l-1.7-4.8-1.7 4.8zM522.4 580.2v4.8H520v-4.7l-4.3-7.4 2.5-.4 3.1 5.6 3-5.5h2.6l-4.5 7.6zM532 585.1c-1.5 0-2.8-.3-3.9-.9l.4-2.2c1 .6 2.3 1.1 3.6 1.1 1.1 0 1.9-.5 1.9-1.5 0-.9-.4-1.3-2.2-2.1-2.4-1-3.4-1.8-3.4-3.7 0-2.2 1.7-3.5 4-3.5 1.4 0 2.4.3 3.3.8l-.4 2.2c-.9-.6-2-1-2.9-1-1.2 0-1.7.6-1.7 1.3 0 .8.4 1.2 2.1 1.9 2.6 1 3.5 1.9 3.5 3.9-.2 2.4-1.9 3.7-4.3 3.7z"/></g></g><linearGradient id="e" gradientUnits="userSpaceOnUse" x1="0" y1="173.352" x2="696" y2="173.352"><stop offset=".245" stop-color="#0296da"/><stop offset=".792" stop-color="#7e8281"/></linearGradient><path opacity=".4" fill="url(#e)" d="M695 174.4H1c-.6 0-1-.4-1-1s.4-1 1-1h694c.6 0 1 .4 1 1s-.4 1-1 1z"/><path fill="#8EDBFF" d="M218 95.4h30.2l6 4-5.2 5v21l-31-17z"/><path fill="#BFE7F9" d="M184.3 67.4l-11.8-6-48.3 21 4.8 5v29h39.5l2.6-.9-1.5-32.5-4.6-6.1"/><path fill="#E8F7FC" d="M170 124.4v-42l-5.2-5.5 19.4-9.5 10.3-5h.1L224 76.9l-6 5.5v42"/><path fill="#BFE7F9" d="M218 133.4h1.5l-1-24 12 6.5 10 5.4 26 14.1H259v38h-41z"/><g><path fill="#E8F7FC" d="M124 125.4h94v48h-94z"/><path fill="#0296DA" d="M218 174.4h-94c-.6 0-1-.4-1-1v-48c0-.6.4-1 1-1h94c.6 0 1 .4 1 1v48c0 .5-.4 1-1 1zm-93-2h92v-46h-92v46z"/></g><g><path fill="#45BFEF" d="M170 125.4v-9h-45.5l-9 9z"/><path fill="#0296DA" d="M170 126.4h-54.5c-.4 0-.8-.2-.9-.6-.2-.4-.1-.8.2-1.1l9-9c.2-.2.4-.3.7-.3H170c.6 0 1 .4 1 1v9c0 .5-.4 1-1 1zm-52.1-2H169v-7h-44.1l-7 7z"/></g><path fill="#0296DA" d="M148 113.4h-12c-.6 0-1-.4-1-1v-24c0-.6.4-1 1-1h12c.6 0 1 .4 1 1v24c0 .5-.4 1-1 1zm-11-2h10v-22h-10v22zM164 113.4h-12c-.6 0-1-.4-1-1v-24c0-.6.4-1 1-1h12c.6 0 1 .4 1 1v24c0 .5-.4 1-1 1zm-11-2h10v-22h-10v22z"/><path fill="#0296DA" d="M166 89.4h-32c-.6 0-1-.4-1-1s.4-1 1-1h32c.6 0 1 .4 1 1s-.4 1-1 1zM166 113.4h-32c-.6 0-1-.4-1-1s.4-1 1-1h32c.6 0 1 .4 1 1s-.4 1-1 1zM148 101.4h-11c-.6 0-1-.4-1-1s.4-1 1-1h11c.6 0 1 .4 1 1s-.4 1-1 1zM163 101.4h-11c-.6 0-1-.4-1-1s.4-1 1-1h11c.6 0 1 .4 1 1s-.4 1-1 1zM202 113.4h-16c-.6 0-1-.4-1-1s.4-1 1-1h16c.6 0 1 .4 1 1s-.4 1-1 1z"/><path fill="#E8F7FC" d="M230 116.4v-3l10.2 1-1.1 6"/><path fill="#0296DA" d="M129 117.4c-.6 0-1-.4-1-1V87.8l-4.5-4.7c-.2-.2-.3-.6-.3-.9.1-.3.3-.6.6-.7l48.1-21c.3-.1.6-.1.9 0l11.6 6c.5.3.7.9.4 1.3-.3.5-.9.7-1.3.4l-11.2-5.8L126 82.7l3.8 4c.2.2.3.4.3.7v29c-.1.5-.5 1-1.1 1z"/><path fill="#0296DA" d="M218 126.4c-.6 0-1-.4-1-1v-43c0-.3.1-.5.3-.7l4.9-4.5-27.7-13.7-28.1 13.7 4.3 4.5c.2.2.3.4.3.7v34c0 .6-.4 1-1 1s-1-.4-1-1V82.8l-5-5.2c-.2-.2-.3-.6-.3-.9s.3-.6.5-.7L194 61.5c.1-.1.3-.1.4-.1h.1c.2 0 .3 0 .4.1L224.4 76c.3.1.5.4.5.8 0 .3-.1.7-.3.9l-5.7 5.2v42.6c.1.4-.3.9-.9.9z"/><path fill="#0296DA" d="M259 174.4h-41c-.6 0-1-.4-1-1s.4-1 1-1h40v-37c0-.6.4-1 1-1h3.5l-32.6-17.6-12.1-6.5c-.5-.3-.7-.9-.4-1.4.3-.5.9-.7 1.4-.4l22.2 11.9 26.1 14.1c.4.2.6.7.5 1.1-.1.4-.5.8-1 .8H260v37c0 .5-.4 1-1 1z"/><g><path fill="#8EDBFF" d="M134 135.4h74v38h-74z"/><path fill="#0296DA" d="M208 174.4h-74c-.6 0-1-.4-1-1v-38c0-.6.4-1 1-1h74c.6 0 1 .4 1 1v38c0 .5-.4 1-1 1zm-73-2h72v-36h-72v36z"/></g><path fill="#0296DA" d="M208 145.4h-73c-.6 0-1-.4-1-1s.4-1 1-1h73c.6 0 1 .4 1 1s-.4 1-1 1zM208 155.4h-73c-.6 0-1-.4-1-1s.4-1 1-1h73c.6 0 1 .4 1 1s-.4 1-1 1zM208 164.4h-73c-.6 0-1-.4-1-1s.4-1 1-1h73c.6 0 1 .4 1 1s-.4 1-1 1z"/><g><path fill="#BFE7F9" d="M182 116.4v-36h24v36"/><path fill="#0296DA" d="M206 117.4c-.6 0-1-.4-1-1v-35h-22v35c0 .6-.4 1-1 1s-1-.4-1-1v-36c0-.6.4-1 1-1h24c.6 0 1 .4 1 1v36c0 .5-.4 1-1 1z"/></g><g><path fill="#45BFEF" d="M177.5 74.4h34v1c0 2.8-2.2 5-5 5h-24c-2.8 0-5-2.2-5-5v-1z"/><path fill="#0296DA" d="M206.5 81.4h-24c-3.3 0-6-2.7-6-6v-1c0-.6.4-1 1-1h34c.6 0 1 .4 1 1v1c0 3.3-2.7 6-6 6zm-28-6c0 2.2 1.8 4 4 4h24c2.2 0 4-1.8 4-4h-32z"/></g><g><path fill="#45BFEF" d="M229 141.4h16v32h-16z"/><path fill="#0296DA" d="M245 174.4h-16c-.6 0-1-.4-1-1v-32c0-.6.4-1 1-1h16c.6 0 1 .4 1 1v32c0 .5-.4 1-1 1zm-15-2h14v-30h-14v30z"/></g><g><ellipse fill="#E8F7FC" cx="237.5" cy="150.4" rx="4" ry="5"/><path fill="#0296DA" d="M237.5 156.4c-2.8 0-5-2.7-5-6s2.2-6 5-6 5 2.7 5 6-2.2 6-5 6zm0-10c-1.7 0-3 1.8-3 4s1.3 4 3 4 3-1.8 3-4-1.3-4-3-4z"/></g><path fill="#0296DA" d="M249 126.4c-.6 0-1-.4-1-1v-21c0-.3.1-.5.3-.7l5-5c.4-.4 1-.4 1.4 0s.4 1 0 1.4l-4.7 4.7v20.6c0 .5-.4 1-1 1zM241 121.4h-2v-15h-8v10h-2v-11c0-.6.4-1 1-1h10c.6 0 1 .4 1 1v16z"/><path fill="#0296DA" d="M242 106.4h-14c-.6 0-1-.4-1-1s.4-1 1-1h14c.6 0 1 .4 1 1s-.4 1-1 1zM240 114.4h-9c-.6 0-1-.4-1-1s.4-1 1-1h9c.6 0 1 .4 1 1s-.4 1-1 1z"/><path fill="#E8F7FC" d="M153 101.4h10v10h-10zM189 101.4h10v10h-10zM137 101.4h10v10h-10z"/><path fill="#0296DA" d="M200 113.4h-12c-.6 0-1-.4-1-1v-24c0-.6.4-1 1-1h12c.6 0 1 .4 1 1v24c0 .5-.4 1-1 1zm-11-2h10v-22h-10v22z"/><path fill="#0296DA" d="M202 89.4h-16c-.6 0-1-.4-1-1s.4-1 1-1h16c.6 0 1 .4 1 1s-.4 1-1 1zM202 113.4h-16c-.6 0-1-.4-1-1s.4-1 1-1h16c.6 0 1 .4 1 1s-.4 1-1 1zM200 101.4h-11c-.6 0-1-.4-1-1s.4-1 1-1h11c.6 0 1 .4 1 1s-.4 1-1 1z"/><g><path fill="#45BFEF" d="M180 116.4h28v9h-28z"/><path fill="#0296DA" d="M208 126.4h-28c-.6 0-1-.4-1-1v-9c0-.6.4-1 1-1h28c.6 0 1 .4 1 1v9c0 .5-.4 1-1 1zm-27-2h26v-7h-26v7z"/></g><path fill="#45BFEF" d="M218 99.4l35.2-1-5-3H218z"/><path fill="#0296DA" d="M254.5 100.4H218c-.6 0-1-.4-1-1v-4c0-.6.4-1 1-1h30.2c.2 0 .4.1.5.2l6.2 3.9c.4.2.6.5.6.9 0 .5-.4 1-1 1zm-35.5-2h32l-3.2-2H219v2z"/><g opacity=".5" fill="#0296DA"><path opacity=".5" d="M176 107.4h-5c-.6 0-1-.4-1-1s.4-1 1-1h5c.6 0 1 .4 1 1s-.4 1-1 1zM181 102.4h-5c-.6 0-1-.4-1-1s.4-1 1-1h5c.6 0 1 .4 1 1s-.4 1-1 1zM175 96.4h-5c-.6 0-1-.4-1-1s.4-1 1-1h5c.6 0 1 .4 1 1s-.4 1-1 1zM178 90.4h-7c-.6 0-1-.4-1-1s.4-1 1-1h7c.6 0 1 .4 1 1s-.4 1-1 1zM181 84.4h-3c-.6 0-1-.4-1-1s.4-1 1-1h3c.6 0 1 .4 1 1s-.4 1-1 1zM174 112.4h-3c-.6 0-1-.4-1-1s.4-1 1-1h3c.6 0 1 .4 1 1s-.4 1-1 1zM182 112.4h-3c-.6 0-1-.4-1-1s.4-1 1-1h3c.6 0 1 .4 1 1s-.4 1-1 1zM176 120.4h-6c-.6 0-1-.4-1-1s.4-1 1-1h6c.6 0 1 .4 1 1s-.4 1-1 1zM218 84.4h-7c-.6 0-1-.4-1-1s.4-1 1-1h7c.6 0 1 .4 1 1s-.4 1-1 1zM210 88.4h-4c-.6 0-1-.4-1-1s.4-1 1-1h4c.6 0 1 .4 1 1s-.4 1-1 1zM218 93.4h-7c-.6 0-1-.4-1-1s.4-1 1-1h7c.6 0 1 .4 1 1s-.4 1-1 1zM210 97.4h-4c-.6 0-1-.4-1-1s.4-1 1-1h4c.6 0 1 .4 1 1s-.4 1-1 1zM218 99.4h-4c-.6 0-1-.4-1-1s.4-1 1-1h4c.6 0 1 .4 1 1s-.4 1-1 1zM214 105.4h-8c-.6 0-1-.4-1-1s.4-1 1-1h8c.6 0 1 .4 1 1s-.4 1-1 1zM218 109.4h-4c-.6 0-1-.4-1-1s.4-1 1-1h4c.6 0 1 .4 1 1s-.4 1-1 1zM210 111.4h-3c-.6 0-1-.4-1-1s.4-1 1-1h3c.6 0 1 .4 1 1s-.4 1-1 1zM218 115.4h-6c-.6 0-1-.4-1-1s.4-1 1-1h6c.6 0 1 .4 1 1s-.4 1-1 1zM218 121.4h-5c-.6 0-1-.4-1-1s.4-1 1-1h5c.6 0 1 .4 1 1s-.4 1-1 1zM174 81.4h-5c-.6 0-1-.4-1-1s.4-1 1-1h5c.6 0 1 .4 1 1s-.4 1-1 1zM173 76.4h-4c-.6 0-1-.4-1-1s.4-1 1-1h4c.6 0 1 .4 1 1s-.4 1-1 1zM192 71.4h-6c-.6 0-1-.4-1-1s.4-1 1-1h6c.6 0 1 .4 1 1s-.4 1-1 1zM203 68.4h-8c-.6 0-1-.4-1-1s.4-1 1-1h8c.6 0 1 .4 1 1s-.4 1-1 1zM221 77.4h-6c-.6 0-1-.4-1-1s.4-1 1-1h6c.6 0 1 .4 1 1s-.4 1-1 1zM214 80.4h-5c-.6 0-1-.4-1-1s.4-1 1-1h5c.6 0 1 .4 1 1s-.4 1-1 1zM212 72.4h-10c-.6 0-1-.4-1-1s.4-1 1-1h10c.6 0 1 .4 1 1s-.4 1-1 1z"/></g><g fill="#0296DA"><path d="M152.5 14c-3.7 0-6-2.7-6-6.8s2.4-6.8 6.1-6.8c3.7 0 6 2.7 6 6.8 0 4-2.4 6.8-6.1 6.8zm0-12c-2.6 0-4.2 2-4.2 5.2s1.6 5.2 4.2 5.2 4.2-2 4.2-5.2-1.6-5.2-4.2-5.2zM165.5 13.8c-.9 0-1.7-.2-2.3-.4V17l-1.7.2V4.7h1.3L163 6c.7-.8 1.6-1.5 2.9-1.5 2 0 3.6 1.4 3.6 4.5.1 3.2-1.8 4.8-4 4.8zm.2-7.8c-1 0-1.8.6-2.5 1.6V12c.7.3 1.2.5 2.2.5 1.4 0 2.5-1.2 2.5-3.4 0-2.1-.9-3.1-2.2-3.1zM176 13.9c-2.4 0-4.2-1.4-4.2-4.8 0-2.9 1.7-4.7 4-4.7 2.6 0 3.9 2 3.9 4.5v.4h-6.2c.1 2.1 1.1 3.1 2.6 3.1 1.3 0 2.3-.5 3.2-1.3l.2 1.5c-.9.9-2 1.3-3.5 1.3zm-2.4-5.8h4.4c-.2-1.5-.9-2.3-2.2-2.3-1.1 0-2 .8-2.2 2.3zM188 13.7V7.5c0-.9-.4-1.6-1.4-1.6-.9 0-1.8.6-2.6 1.5v6.3h-1.7v-9h1.3l.2 1.3c.9-.8 1.9-1.5 3.2-1.5 1.7 0 2.6 1 2.6 2.7v6.6H188zM199.1 13.7l-.2-1.3c-.7.8-1.6 1.5-2.9 1.5-2 0-3.6-1.4-3.6-4.5 0-3.3 1.9-4.9 4.1-4.9.9 0 1.7.2 2.3.4V.3l1.7-.3v13.7h-1.4zm-.3-7.2c-.7-.4-1.3-.5-2.2-.5-1.4 0-2.5 1.2-2.5 3.4 0 2 .9 3 2.1 3 1 0 1.8-.6 2.6-1.6V6.5zM207.4 13.9c-2.4 0-4.2-1.7-4.2-4.7s1.7-4.7 4.2-4.7c2.4 0 4.2 1.7 4.2 4.7s-1.8 4.7-4.2 4.7zm0-8c-1.6 0-2.5 1.4-2.5 3.3s.9 3.3 2.5 3.3c1.7 0 2.5-1.4 2.5-3.3s-.9-3.3-2.5-3.3zM218 13.9c-2.4 0-4.2-1.7-4.2-4.7s1.7-4.7 4.2-4.7c2.4 0 4.2 1.7 4.2 4.7s-1.8 4.7-4.2 4.7zm0-8c-1.6 0-2.5 1.4-2.5 3.3s.9 3.3 2.5 3.3c1.7 0 2.5-1.4 2.5-3.3s-.9-3.3-2.5-3.3zM226.6 8.4v5.4h-1.7V4.7h1.3l.3 1.8c.6-1 1.7-2 3.2-2l.3 1.6c-1.5.1-2.8 1.1-3.4 2.3zM157.9 25v11.5h-1.8V25H152v-1.6h10l.3 1.6h-4.4zM165 25.6c-.6 0-1.1-.5-1.1-1.1s.5-1.1 1.1-1.1c.6 0 1.1.5 1.1 1.1s-.5 1.1-1.1 1.1zm-.8 10.9v-9.1h1.7v9.1h-1.7zM180.4 36.5v-6.2c0-.9-.3-1.6-1.3-1.6-.9 0-1.7.6-2.6 1.5v6.3h-1.7v-6.2c0-.9-.3-1.6-1.3-1.6-.9 0-1.7.6-2.6 1.5v6.3h-1.7v-9.1h1.3l.2 1.3c.9-.8 1.9-1.5 3.2-1.5 1.3 0 2.1.6 2.4 1.5.8-.8 1.9-1.5 3.2-1.5 1.7 0 2.6 1 2.6 2.7v6.6h-1.7zM189 36.7c-2.4 0-4.2-1.4-4.2-4.8 0-2.9 1.7-4.7 4-4.7 2.6 0 3.9 2 3.9 4.5v.4h-6.2c.1 2.1 1.1 3.1 2.6 3.1 1.3 0 2.3-.5 3.2-1.3l.2 1.5c-.9.8-2 1.3-3.5 1.3zm-2.5-5.8h4.4c-.2-1.5-.9-2.3-2.2-2.3-1 0-1.9.8-2.2 2.3zM195.5 36.5V23.1l1.7-.3v13.7h-1.7zM201.5 25.6c-.6 0-1.1-.5-1.1-1.1s.5-1.1 1.1-1.1c.6 0 1.1.5 1.1 1.1s-.5 1.1-1.1 1.1zm-.8 10.9v-9.1h1.7v9.1h-1.7zM211.4 36.5v-6.2c0-.9-.4-1.6-1.4-1.6-.9 0-1.8.6-2.6 1.5v6.3h-1.7v-9.1h1.3l.2 1.3c.9-.8 1.9-1.5 3.2-1.5 1.7 0 2.6 1 2.6 2.7v6.6h-1.6zM220 36.7c-2.4 0-4.2-1.4-4.2-4.8 0-2.9 1.7-4.7 4-4.7 2.6 0 3.9 2 3.9 4.5v.4h-6.2c.1 2.1 1.1 3.1 2.6 3.1 1.3 0 2.3-.5 3.2-1.3l.2 1.5c-.9.8-2 1.3-3.5 1.3zm-2.4-5.8h4.4c-.2-1.5-.9-2.3-2.2-2.3-1.1 0-2 .8-2.2 2.3z"/></g><g><path fill="#C9C9C9" d="M474.5 93.4L398 123.7v4.7h7v45h139v-44h7v-5.7z"/><path fill="#7E8281" d="M544 174.4H405c-.6 0-1-.4-1-1v-44h-6c-.6 0-1-.4-1-1v-4.7c0-.4.2-.8.6-.9l76.5-30.3c.2-.1.5-.1.7 0l76.5 30.3c.4.2.6.5.6.9v5.7c0 .6-.4 1-1 1h-6v43c.1.5-.3 1-.9 1zm-138-2h137v-43c0-.6.4-1 1-1h6v-4l-75.5-29.9-75.5 29.8v3h6c.6 0 1 .4 1 1v44.1z"/></g><g><path fill="#F4F9F8" d="M412 136.4h14v28h-14z"/><path fill="#7E8281" d="M426 165.4h-14c-.6 0-1-.4-1-1v-28c0-.6.4-1 1-1h14c.6 0 1 .4 1 1v28c0 .5-.4 1-1 1zm-13-2h12v-26h-12v26z"/></g><g><path fill="#E5E5E5" d="M460 95.4l-30 14.1v2.9h3v61h54v-61h3v-2.9z"/><path fill="#7E8281" d="M487 174.4h-54c-.6 0-1-.4-1-1v-60h-2c-.6 0-1-.4-1-1v-2.8c0-.4.2-.7.6-.9l30-14.2c.3-.1.6-.1.9 0l30 14.2c.3.2.6.5.6.9v2.8c0 .6-.4 1-1 1h-2v60c-.1.5-.5 1-1.1 1zm-53-2h52v-60c0-.6.4-1 1-1h2v-1.2l-29-13.7-29 13.7v1.2h2c.6 0 1 .4 1 1v60z"/></g><g><path fill="#A5A5A5" d="M477 117.4v56h-34v-56s8-4 17-4 17 4 17 4z"/><path fill="#7E8281" d="M477 174.4h-34c-.6 0-1-.4-1-1v-56c0-.4.2-.7.6-.9.3-.2 8.3-4.1 17.4-4.1s17.1 3.9 17.4 4.1c.3.2.6.5.6.9v56c0 .5-.4 1-1 1zm-33-2h32V118c-1.9-.9-8.7-3.6-16-3.6-7.3 0-14.1 2.8-16 3.6v54.4z"/></g><g><path fill="#FFF" d="M431 159.4h14v14h-14z"/><path fill="#7E8281" d="M445 174.4h-14c-.6 0-1-.4-1-1v-14c0-.6.4-1 1-1h14c.6 0 1 .4 1 1v14c0 .5-.4 1-1 1zm-13-2h12v-12h-12v12z"/></g><g><path fill="#FFF" d="M487.5 136.4h-11l-2-9h15z"/><path fill="#7E8281" d="M487.5 137.4h-11c-.5 0-.9-.3-1-.8l-2-9c-.1-.3 0-.6.2-.8.2-.2.5-.4.8-.4h15c.3 0 .6.1.8.4.2.2.3.5.2.8l-2 9c-.1.4-.5.8-1 .8zm-10.2-2h9.4l1.6-7h-12.5l1.5 7z"/></g><g><path fill="#FFF" d="M444 136.4h-11l-2-9h15z"/><path fill="#7E8281" d="M444 137.4h-11c-.5 0-.9-.3-1-.8l-2-9c-.1-.3 0-.6.2-.8.2-.2.5-.4.8-.4h15c.3 0 .6.1.8.4.2.2.3.5.2.8l-2 9c-.1.4-.5.8-1 .8zm-10.2-2h9.4l1.6-7h-12.5l1.5 7z"/></g><g><path fill="#FFF" d="M475 159.4h14v14h-14z"/><path fill="#7E8281" d="M489 174.4h-14c-.6 0-1-.4-1-1v-14c0-.6.4-1 1-1h14c.6 0 1 .4 1 1v14c0 .5-.4 1-1 1zm-13-2h12v-12h-12v12z"/></g><g><path fill="#F4F9F8" d="M451 135.4h18v38h-18z"/><path fill="#7E8281" d="M469 174.4h-18c-.6 0-1-.4-1-1v-38c0-.6.4-1 1-1h18c.6 0 1 .4 1 1v38c0 .5-.4 1-1 1zm-17-2h16v-36h-16v36z"/></g><g><path fill="#C9C9C9" d="M455 139.4h10v10h-10z"/><path fill="#7E8281" d="M465 150.4h-10c-.6 0-1-.4-1-1v-10c0-.6.4-1 1-1h10c.6 0 1 .4 1 1v10c0 .5-.4 1-1 1zm-9-2h8v-8h-8v8z"/></g><g><path fill="#C9C9C9" d="M455 153.4h10v16h-10z"/><path fill="#7E8281" d="M465 170.4h-10c-.6 0-1-.4-1-1v-16c0-.6.4-1 1-1h10c.6 0 1 .4 1 1v16c0 .5-.4 1-1 1zm-9-2h8v-14h-8v14z"/></g><g><path fill="#E5E5E5" d="M540 95.4l-58 23v4h5v51h106v-51h5v-4z"/><path fill="#7E8281" d="M593 174.4H487c-.6 0-1-.4-1-1v-50h-4c-.6 0-1-.4-1-1v-4c0-.4.2-.8.6-.9l58-23c.2-.1.5-.1.7 0l58 23c.4.2.6.5.6.9v4c0 .6-.4 1-1 1h-4v50c.1.5-.3 1-.9 1zm-105-2h104v-50c0-.6.4-1 1-1h4V119l-57-22.6-57 22.6v2.3h4c.6 0 1 .4 1 1v50.1z"/></g><g><path fill="#C9C9C9" d="M504 134.4h74v39h-74z"/><path fill="#7E8281" d="M578 174.4h-74c-.6 0-1-.4-1-1v-39c0-.6.4-1 1-1h74c.6 0 1 .4 1 1v39c0 .5-.4 1-1 1zm-73-2h72v-37h-72v37z"/></g><g><circle fill="#FFF" cx="540.5" cy="115.4" r="9"/><path fill="#7E8281" d="M540.5 125.4c-5.5 0-10-4.5-10-10s4.5-10 10-10 10 4.5 10 10-4.5 10-10 10zm0-18c-4.4 0-8 3.6-8 8s3.6 8 8 8 8-3.6 8-8-3.6-8-8-8z"/></g><path fill="#7E8281" d="M548 112.4h-15c-.6 0-1-.4-1-1s.4-1 1-1h15c.6 0 1 .4 1 1s-.4 1-1 1zM548 116.4h-16c-.6 0-1-.4-1-1s.4-1 1-1h16c.6 0 1 .4 1 1s-.4 1-1 1zM547 120.4h-15c-.6 0-1-.4-1-1s.4-1 1-1h15c.6 0 1 .4 1 1s-.4 1-1 1z"/><g><path fill="#A5A5A5" d="M412 136.4h14v17h-14z"/><path fill="#7E8281" d="M426 154.4h-14c-.6 0-1-.4-1-1v-17c0-.6.4-1 1-1h14c.6 0 1 .4 1 1v17c0 .5-.4 1-1 1zm-13-2h12v-15h-12v15z"/></g><path fill="#7E8281" d="M428 165.4h-18c-.6 0-1-.4-1-1s.4-1 1-1h18c.6 0 1 .4 1 1s-.4 1-1 1zM428 137.4h-18c-.6 0-1-.4-1-1s.4-1 1-1h18c.6 0 1 .4 1 1s-.4 1-1 1z"/><path fill="#7E8281" d="M419 154.4c-.6 0-1-.4-1-1v-17c0-.6.4-1 1-1s1 .4 1 1v17c0 .5-.4 1-1 1z"/><g><path fill="#F2F2F2" d="M504 146.4h74"/><path fill="#7E8281" d="M578 147.4h-74c-.6 0-1-.4-1-1s.4-1 1-1h74c.6 0 1 .4 1 1s-.4 1-1 1z"/></g><g><path fill="#F2F2F2" d="M504 160.4h74"/><path fill="#7E8281" d="M578 161.4h-74c-.6 0-1-.4-1-1s.4-1 1-1h74c.6 0 1 .4 1 1s-.4 1-1 1z"/></g><g fill="#7E8281"><path opacity=".51" d="M516 155.4h-12c-.6 0-1-.4-1-1s.4-1 1-1h12c.6 0 1 .4 1 1s-.4 1-1 1zM523 151.4h-11c-.6 0-1-.4-1-1s.4-1 1-1h11c.6 0 1 .4 1 1s-.4 1-1 1zM534 157.4h-10c-.6 0-1-.4-1-1s.4-1 1-1h10c.6 0 1 .4 1 1s-.4 1-1 1zM548 153.4h-17c-.6 0-1-.4-1-1s.4-1 1-1h17c.6 0 1 .4 1 1s-.4 1-1 1zM551 157.4h-6c-.6 0-1-.4-1-1s.4-1 1-1h6c.6 0 1 .4 1 1s-.4 1-1 1zM561 151.4h-8c-.6 0-1-.4-1-1s.4-1 1-1h8c.6 0 1 .4 1 1s-.4 1-1 1zM571 156.4h-12c-.6 0-1-.4-1-1s.4-1 1-1h12c.6 0 1 .4 1 1s-.4 1-1 1zM577 152.4h-8c-.6 0-1-.4-1-1s.4-1 1-1h8c.6 0 1 .4 1 1s-.4 1-1 1zM576 143.4h-12c-.6 0-1-.4-1-1s.4-1 1-1h12c.6 0 1 .4 1 1s-.4 1-1 1zM559 138.4h-9c-.6 0-1-.4-1-1s.4-1 1-1h9c.6 0 1 .4 1 1s-.4 1-1 1zM577 139.4h-9c-.6 0-1-.4-1-1s.4-1 1-1h9c.6 0 1 .4 1 1s-.4 1-1 1zM551 142.4h-12c-.6 0-1-.4-1-1s.4-1 1-1h12c.6 0 1 .4 1 1s-.4 1-1 1zM537 139.4h-14c-.6 0-1-.4-1-1s.4-1 1-1h14c.6 0 1 .4 1 1s-.4 1-1 1zM531 143.4h-4c-.6 0-1-.4-1-1s.4-1 1-1h4c.6 0 1 .4 1 1s-.4 1-1 1zM519 142.4h-8c-.6 0-1-.4-1-1s.4-1 1-1h8c.6 0 1 .4 1 1s-.4 1-1 1zM509 139.4h-5c-.6 0-1-.4-1-1s.4-1 1-1h5c.6 0 1 .4 1 1s-.4 1-1 1zM576 165.4h-12c-.6 0-1-.4-1-1s.4-1 1-1h12c.6 0 1 .4 1 1s-.4 1-1 1zM576 170.4h-5c-.6 0-1-.4-1-1s.4-1 1-1h5c.6 0 1 .4 1 1s-.4 1-1 1zM553 170.4h-7c-.6 0-1-.4-1-1s.4-1 1-1h7c.6 0 1 .4 1 1s-.4 1-1 1zM557 166.4h-14c-.6 0-1-.4-1-1s.4-1 1-1h14c.6 0 1 .4 1 1s-.4 1-1 1zM538 169.4h-9c-.6 0-1-.4-1-1s.4-1 1-1h9c.6 0 1 .4 1 1s-.4 1-1 1zM528 165.4h-9c-.6 0-1-.4-1-1s.4-1 1-1h9c.6 0 1 .4 1 1s-.4 1-1 1zM522 169.4h-12c-.6 0-1-.4-1-1s.4-1 1-1h12c.6 0 1 .4 1 1s-.4 1-1 1zM509 166.4h-5c-.6 0-1-.4-1-1s.4-1 1-1h5c.6 0 1 .4 1 1s-.4 1-1 1z"/></g><g fill="#7E8281"><path d="M470 8.4h-1.4v5.3h-1.8V.6h3.5c2.8 0 4.4 1.3 4.4 3.8 0 2.7-1.9 4-4.7 4zm.2-6.2h-1.6v4.6h1.5c1.8 0 2.8-.7 2.8-2.4 0-1.5-.9-2.2-2.7-2.2zM483 13.7V7.5c0-.9-.4-1.6-1.4-1.6-.9 0-1.8.6-2.6 1.5v6.3h-1.7V.3L479 0v5.9c.7-.7 1.8-1.4 3.1-1.4 1.7 0 2.6 1 2.6 2.7v6.6H483zM491.5 13.9c-2.4 0-4.2-1.7-4.2-4.7s1.7-4.7 4.2-4.7c2.4 0 4.2 1.7 4.2 4.7s-1.7 4.7-4.2 4.7zm0-8c-1.6 0-2.5 1.4-2.5 3.3s.9 3.3 2.5 3.3c1.7 0 2.5-1.4 2.5-3.3s-.8-3.3-2.5-3.3zM502.1 13.9c-2.4 0-4.2-1.4-4.2-4.8 0-2.9 1.7-4.7 4-4.7 2.6 0 3.9 2 3.9 4.5v.4h-6.2c.1 2.1 1.1 3.1 2.6 3.1 1.3 0 2.3-.5 3.2-1.3l.2 1.5c-.8.9-2 1.3-3.5 1.3zm-2.4-5.8h4.4c-.2-1.5-.9-2.3-2.2-2.3-1 0-1.9.8-2.2 2.3zM514.2 13.7V7.5c0-.9-.4-1.6-1.4-1.6-.9 0-1.8.6-2.6 1.5v6.3h-1.7v-9h1.3L510 6c.9-.8 1.9-1.5 3.2-1.5 1.7 0 2.6 1 2.6 2.7v6.6h-1.6zM520.1 2.8c-.6 0-1.1-.5-1.1-1.1s.5-1.1 1.1-1.1 1.1.5 1.1 1.1-.5 1.1-1.1 1.1zm-.9 10.9v-9h1.7v9.1h-1.7zM529.7 13.8l-2.3-3.6-2.1 3.5h-1.8l3-4.6-2.8-4.3 1.7-.3 2.1 3.3 2-3.2h1.8l-3 4.4 3 4.6-1.6.2zM469.8 23.4h1.8l5.1 12.9-1.8.4-1.5-4.1H468l-1.5 3.9h-1.9l5.2-13.1zm-1.3 7.6h4.2l-2.1-5.6-2.1 5.6zM482.5 36.6h-1.7l-3.2-9 1.7-.3 2.3 7.2 2.2-7h1.8l-3.1 9.1zM491.4 36.7c-2.4 0-4.2-1.4-4.2-4.8 0-2.9 1.7-4.7 4-4.7 2.6 0 3.9 2 3.9 4.5v.4h-6.2c.1 2.1 1.1 3.1 2.6 3.1 1.3 0 2.3-.5 3.2-1.3l.2 1.5c-.8.8-2 1.3-3.5 1.3zm-2.4-5.8h4.4c-.2-1.5-.9-2.3-2.2-2.3-1 0-1.9.8-2.2 2.3zM499.5 31.2v5.4h-1.7v-9.1h1.3l.3 1.8c.6-1 1.7-2 3.2-2l.3 1.6c-1.5.1-2.8 1.1-3.4 2.3zM510.3 36.5l-.2-1.2c-.7.7-1.7 1.4-3.2 1.4-1.6 0-2.7-1-2.7-2.5 0-2.3 1.9-3.2 5.7-3.6v-.4c0-1.1-.7-1.5-1.7-1.5-1.1 0-2.1.3-3.1.8l-.2-1.5c1.1-.4 2.1-.8 3.5-.8 2.2 0 3.3.9 3.3 2.9v6.3h-1.4zm-.3-4.6c-3.3.3-4 1.2-4 2.2 0 .7.5 1.2 1.3 1.2 1 0 1.9-.5 2.7-1.3v-2.1zM518.1 40c-2.4 0-4.2-.7-4.2-2.3 0-.9.6-1.7 1.9-2.3-.4-.3-.6-.6-.6-1s.3-.9 1-1.2c-1-.5-1.7-1.5-1.7-2.7 0-2 1.6-3.2 3.5-3.2.9 0 1.7.3 2.3.8l2.3-.7.2 1.5-1.7.2c.2.4.4.9.4 1.4 0 1.9-1.6 3.1-3.5 3.1-.2 0-.5 0-.7-.1-.3.2-.5.4-.5.6 0 .3.3.4 1.9.7l.6.1c1.9.3 3.1.9 3.1 2.4.1 1.8-1.9 2.7-4.3 2.7zm-1.1-4.2c-1 .5-1.5 1.1-1.5 1.7 0 .7.9 1.3 2.7 1.3s2.8-.6 2.8-1.4c0-.6-.4-.9-1.7-1.2l-1.1-.2c-.5-.1-.8-.1-1.2-.2zm1-7.3c-1.1 0-1.8.9-1.8 2 0 1 .7 1.9 1.8 1.9 1.2 0 1.9-.9 1.9-1.9s-.8-2-1.9-2zM528.6 36.7c-2.4 0-4.2-1.4-4.2-4.8 0-2.9 1.7-4.7 4-4.7 2.6 0 3.9 2 3.9 4.5v.4h-6.2c.1 2.1 1.1 3.1 2.6 3.1 1.3 0 2.3-.5 3.2-1.3l.2 1.5c-.9.8-2 1.3-3.5 1.3zm-2.5-5.8h4.4c-.2-1.5-.9-2.3-2.2-2.3-1 0-1.9.8-2.2 2.3z"/></g><g><path fill="#D0F7E8" d="M180.8 187.9l6 6 12-12"/><path fill="#6ECCAA" d="M186.8 194.9c-.3 0-.5-.1-.7-.3l-6-6 1.4-1.4 5.3 5.3 11.3-11.3 1.4 1.4-12 12c-.2.2-.5.3-.7.3z"/></g><g opacity=".2"><defs><path id="f" opacity=".2" d="M135.5 205.9h110v138h-110z"/></defs><clipPath id="g"><use xlink:href="#f" overflow="visible"/></clipPath><path clip-path="url(#g)" fill="none" stroke="#D3D3D3" stroke-width="2" stroke-linecap="round" stroke-linejoin="round" stroke-miterlimit="10" d="M109.1 90.5l167.4 67m0 10l-167.4-67m167.4 77l-167.4-67m167.4 77l-167.4-67m167.4 77l-167.4-67m167.4 77l-167.4-67m167.4 77l-167.4-67m167.4 77l-167.4-67m167.4 77l-167.4-67m167.4 77l-167.4-67m167.4 77l-167.4-67m167.4 77l-167.4-67m167.4 77l-167.4-67m167.4 77l-167.4-67m167.4 77l-167.4-67m167.4 77l-167.4-67m167.4 77l-167.4-67m167.4 77l-167.4-67m167.4 77l-167.4-67m167.4 77l-167.4-67m167.4 77l-167.4-67m167.4 77l-167.4-67m167.4 77l-167.4-67m167.4 77l-167.4-67m167.4 77l-167.4-67m167.4 77l-167.4-67m167.4 77l-167.4-67m167.4 77l-167.4-67m167.4 77l-167.4-67m167.4 77l-167.4-67m167.4 77l-167.4-67m167.4 77l-167.4-67m167.4 77l-167.4-67m167.4 77l-167.4-67m167.4 77l-167.4-67m167.4 77l-167.4-67m167.4 77l-167.4-67m167.4 77l-167.4-67m167.4 77l-167.4-67m167.4 77l-167.4-67m167.4 77l-167.4-67m167.4 77l-167.4-67"/><use xlink:href="#f" overflow="visible" fill="none" stroke="#D3D3D3" stroke-miterlimit="10"/></g></svg>